<?xml version="1.0" standalone="no"?>
<!DOCTYPE svg PUBLIC "-//W3C//DTD SVG 20010904//EN"
 "http://www.w3.org/TR/2001/REC-SVG-20010904/DTD/svg10.dtd">
<svg version="1.0" xmlns="http://www.w3.org/2000/svg"
 width="120.000000pt" height="120.000000pt" viewBox="0 0 120.000000 120.000000"
 preserveAspectRatio="xMidYMid meet">
<metadata>
Created by potrace 1.16, written by Peter Selinger 2001-2019
</metadata>
<g transform="translate(0.000000,120.000000) scale(0.023438,-0.023438)"
fill="#000000" stroke="none">
<path d="M2385 4980 c-927 -68 -1739 -661 -2079 -1520 -381 -964 -111 -2070
669 -2738 604 -517 1414 -707 2185 -512 877 221 1567 929 1765 1810 90 398 79
822 -31 1205 -256 888 -986 1553 -1888 1720 -130 24 -372 46 -471 43 -27 0
-95 -4 -150 -8z m105 -799 l0 -648 -52 4 c-286 21 -577 91 -802 192 -80 37
-79 22 -9 201 157 398 392 707 628 828 59 30 180 71 213 72 l22 0 0 -649z
m218 638 c72 -18 200 -81 269 -133 198 -150 384 -423 516 -756 70 -179 71
-164 -9 -201 -106 -48 -347 -125 -464 -148 -108 -21 -231 -37 -332 -44 l-58
-4 0 649 c0 580 2 648 16 648 8 0 36 -5 62 -11z m-787 -137 c-182 -187 -330
-434 -450 -753 l-38 -99 -74 47 c-107 68 -245 172 -323 245 l-69 63 69 64
c180 169 429 324 684 427 78 31 258 91 281 93 3 1 -33 -39 -80 -87z m1354 38
c207 -70 368 -148 544 -266 96 -63 262 -196 309 -247 l23 -24 -68 -63 c-83
-76 -223 -182 -322 -243 l-74 -46 -37 98 c-128 337 -310 632 -492 796 -61 55
-59 54 117 -5z m-2325 -725 c47 -42 119 -101 161 -132 70 -51 247 -167 269
-175 5 -2 -5 -57 -21 -123 -55 -226 -91 -457 -109 -715 -5 -80 -10 -162 -10
-182 l0 -38 -480 0 -481 0 6 63 c15 152 28 248 46 332 60 280 175 555 329 787
70 106 188 258 199 258 3 0 44 -34 91 -75z m3379 -5 c207 -254 365 -575 445
-901 25 -103 49 -260 61 -391 l6 -68 -481 0 -480 0 0 38 c0 20 -5 102 -10 182
-18 258 -54 489 -109 715 -16 66 -26 121 -21 123 22 8 199 124 269 175 42 31
114 90 161 132 47 41 87 75 90 74 3 0 34 -35 69 -79z m-2703 -420 c252 -105
590 -180 809 -180 l55 0 0 -380 0 -380 -550 0 -550 0 0 53 c0 80 19 307 36
437 23 173 88 490 101 490 2 0 46 -18 99 -40z m1982 3 c19 -66 71 -334 86
-453 17 -130 36 -357 36 -437 l0 -53 -550 0 -550 0 0 380 0 380 55 0 c213 0
534 70 780 170 66 27 123 49 126 49 3 1 11 -16 17 -36z m-2368 -1120 c0 -21 5
-103 10 -183 18 -257 53 -488 109 -715 16 -66 29 -120 28 -121 -123 -65 -322
-207 -447 -318 -41 -36 -77 -66 -81 -66 -3 0 -34 35 -68 78 -187 233 -334 514
-415 790 -45 153 -71 296 -91 510 l-6 62 481 0 480 0 0 -37z m1250 -343 l0
-380 -59 0 c-214 0 -576 -83 -822 -189 -85 -37 -87 -37 -92 -17 -79 341 -127
689 -127 914 l0 52 550 0 550 0 0 -380z m1240 328 c0 -225 -48 -573 -127 -914
-5 -20 -7 -20 -93 17 -246 106 -606 189 -821 189 l-59 0 0 380 0 380 550 0
550 0 0 -52z m1106 10 c-3 -24 -8 -77 -11 -118 -27 -325 -158 -700 -350 -1000
-52 -81 -204 -280 -214 -280 -4 0 -40 30 -81 66 -125 111 -324 253 -447 318
-1 1 12 55 28 121 56 227 91 458 109 715 5 80 10 162 10 183 l0 37 481 0 480
0 -5 -42z m-2346 -1513 c0 -739 13 -661 -106 -624 -144 44 -252 116 -383 254
-142 151 -273 369 -374 625 -69 175 -69 163 -1 194 233 107 578 192 787 195
l77 1 0 -645z m405 625 c206 -32 425 -96 599 -176 68 -31 68 -19 -1 -194 -132
-333 -318 -606 -516 -756 -93 -70 -263 -144 -331 -144 -14 0 -16 68 -16 645
l0 645 68 0 c37 0 126 -9 197 -20z m-1342 -567 c98 -216 226 -409 367 -555 96
-98 99 -96 -70 -41 -293 97 -604 277 -813 473 -66 61 -67 63 -50 83 45 49 206
178 320 254 l126 84 38 -100 c20 -55 57 -144 82 -198z m2275 205 c83 -56 254
-192 295 -235 l28 -30 -68 -63 c-209 -196 -520 -376 -813 -473 -172 -56 -172
-56 -112 -2 182 164 372 473 493 802 l34 91 35 -21 c19 -11 68 -43 108 -69z"/>
</g>
</svg>
