<svg width="31" height="29" viewBox="0 0 31 29" fill="none" xmlns="http://www.w3.org/2000/svg">
<g clip-path="url(#clip0_10_135)">
<path d="M25.1875 1.8125H5.8125C3.6724 1.8125 1.9375 3.43547 1.9375 5.4375V23.5625C1.9375 25.5645 3.6724 27.1875 5.8125 27.1875H25.1875C27.3276 27.1875 29.0625 25.5645 29.0625 23.5625V5.4375C29.0625 3.43547 27.3276 1.8125 25.1875 1.8125Z" fill="white"/>
<path d="M25.1875 1.8125H5.8125C4.78479 1.8125 3.79916 2.19442 3.07246 2.87424C2.34576 3.55406 1.9375 4.47609 1.9375 5.4375V23.5625C1.9375 24.5239 2.34576 25.4459 3.07246 26.1258C3.79916 26.8056 4.78479 27.1875 5.8125 27.1875H16.4688V17.3728H12.9037V13.5303H16.4688V10.7028C16.4688 7.43125 18.6097 5.64594 21.7291 5.64594C22.7837 5.64451 23.8378 5.69291 24.8872 5.79094V9.21656H22.6978C21.0025 9.21656 20.6634 9.96875 20.6634 11.0834V13.5303H24.7322L24.2188 17.3728H20.6441V27.1875H25.1875C26.2152 27.1875 27.2008 26.8056 27.9275 26.1258C28.6542 25.4459 29.0625 24.5239 29.0625 23.5625V5.4375C29.0625 4.47609 28.6542 3.55406 27.9275 2.87424C27.2008 2.19442 26.2152 1.8125 25.1875 1.8125Z" fill="#59575C"/>
</g>
<defs>
<clipPath id="clip0_10_135">
<rect width="31" height="29" fill="white"/>
</clipPath>
</defs>
</svg>
