<svg width="31" height="29" viewBox="0 0 31 29" fill="none" xmlns="http://www.w3.org/2000/svg">
<g clip-path="url(#clip0_10_111)">
<path d="M24.2189 3.0813H6.78145C4.85535 3.0813 3.29395 4.54197 3.29395 6.3438V22.6563C3.29395 24.4581 4.85535 25.9188 6.78145 25.9188H24.2189C26.145 25.9188 27.7064 24.4581 27.7064 22.6563V6.3438C27.7064 4.54197 26.145 3.0813 24.2189 3.0813Z" fill="white"/>
<path d="M22.2814 9.68789C22.1313 9.34343 21.9092 9.03051 21.6281 8.7675C21.3469 8.50448 21.0124 8.29669 20.6442 8.15633C20.1254 7.97907 19.5786 7.88412 19.0264 7.87539C18.1061 7.87539 17.8251 7.83008 15.5001 7.83008C13.1751 7.83008 12.8942 7.83008 11.9739 7.87539C11.4216 7.88412 10.8748 7.97907 10.3561 8.15633C9.98784 8.29669 9.65334 8.50448 9.37218 8.7675C9.09103 9.03051 8.86891 9.34343 8.71887 9.68789C8.52939 10.1732 8.42789 10.6847 8.41855 11.2013C8.41855 12.1076 8.37012 12.3251 8.37012 14.5001C8.37012 16.6751 8.37012 16.9379 8.41855 17.7988C8.42789 18.3154 8.52939 18.8269 8.71887 19.3123C8.86891 19.6567 9.09103 19.9696 9.37218 20.2327C9.65334 20.4957 9.98784 20.7035 10.3561 20.8438C10.8748 21.0211 11.4216 21.116 11.9739 21.1248C12.9426 21.1248 13.1751 21.1701 15.5001 21.1701C17.8251 21.1701 18.1061 21.1701 19.0264 21.1248C19.5786 21.116 20.1254 21.0211 20.6442 20.8438C21.0124 20.7035 21.3469 20.4957 21.6281 20.2327C21.9092 19.9696 22.1313 19.6567 22.2814 19.3123C22.4708 18.8269 22.5723 18.3154 22.5817 17.7988C22.5817 16.9379 22.6301 16.6751 22.6301 14.5001C22.6301 12.3251 22.6301 12.0623 22.5817 11.2013C22.5723 10.6847 22.4708 10.1732 22.2814 9.68789ZM15.5001 18.687C14.6149 18.687 13.7496 18.4414 13.0136 17.9813C12.2776 17.5213 11.7039 16.8674 11.3652 16.1023C11.0264 15.3373 10.9378 14.4954 11.1105 13.6833C11.2832 12.8711 11.7094 12.1251 12.3354 11.5395C12.9613 10.954 13.7588 10.5552 14.627 10.3937C15.4952 10.2321 16.3951 10.315 17.2129 10.6319C18.0307 10.9488 18.7297 11.4854 19.2215 12.174C19.7133 12.8625 19.9757 13.672 19.9757 14.5001C19.9757 15.6105 19.5042 16.6755 18.6649 17.4606C17.8255 18.2458 16.6871 18.687 15.5001 18.687ZM20.1501 11.1288C19.8726 11.1288 19.6065 11.0257 19.4103 10.8422C19.2141 10.6586 19.1039 10.4097 19.1039 10.1501C19.1039 9.8905 19.2141 9.64155 19.4103 9.458C19.6065 9.27445 19.8726 9.17133 20.1501 9.17133C20.4276 9.17133 20.6937 9.27445 20.8899 9.458C21.0861 9.64155 21.1964 9.8905 21.1964 10.1501C21.1964 10.4097 21.0861 10.6586 20.8899 10.8422C20.6937 11.0257 20.4276 11.1288 20.1501 11.1288Z" fill="#59575C"/>
<path d="M15.5 17.2188C17.1051 17.2188 18.4062 16.0015 18.4062 14.5C18.4062 12.9985 17.1051 11.7812 15.5 11.7812C13.8949 11.7812 12.5938 12.9985 12.5938 14.5C12.5938 16.0015 13.8949 17.2188 15.5 17.2188Z" fill="#59575C"/>
<path d="M25.1875 1.8125H5.8125C4.78479 1.8125 3.79916 2.19442 3.07246 2.87424C2.34576 3.55406 1.9375 4.47609 1.9375 5.4375V23.5625C1.9375 24.5239 2.34576 25.4459 3.07246 26.1258C3.79916 26.8056 4.78479 27.1875 5.8125 27.1875H25.1875C26.2152 27.1875 27.2008 26.8056 27.9275 26.1258C28.6542 25.4459 29.0625 24.5239 29.0625 23.5625V5.4375C29.0625 4.47609 28.6542 3.55406 27.9275 2.87424C27.2008 2.19442 26.2152 1.8125 25.1875 1.8125ZM24.2188 17.8622C24.1991 18.54 24.0616 19.2103 23.8119 19.8469C23.5859 20.3871 23.2429 20.8777 22.8044 21.2879C22.366 21.698 21.8415 22.0189 21.2641 22.2303C20.5836 22.464 19.8671 22.5925 19.1425 22.6109C18.1737 22.6109 17.9122 22.6562 15.5484 22.6562C13.1847 22.6562 12.8844 22.6562 11.9544 22.6109C11.2298 22.5925 10.5133 22.464 9.83281 22.2303C9.24642 22.0242 8.71255 21.7057 8.26545 21.2952C7.81835 20.8848 7.4679 20.3915 7.23656 19.8469C6.98681 19.2103 6.84939 18.54 6.82969 17.8622C6.82969 16.9559 6.82969 16.7113 6.82969 14.5C6.82969 12.2887 6.82969 12.0078 6.82969 11.1378C6.84939 10.46 6.98681 9.78968 7.23656 9.15313C7.46254 8.61293 7.80554 8.12232 8.24401 7.71214C8.68248 7.30196 9.20693 6.98108 9.78438 6.76969C10.4648 6.53604 11.1814 6.40749 11.9059 6.38906C12.8747 6.38906 13.1362 6.38906 15.5 6.38906C17.8638 6.38906 18.1641 6.38906 19.0941 6.38906C19.8186 6.40749 20.5352 6.53604 21.2156 6.76969C21.7931 6.98108 22.3175 7.30196 22.756 7.71214C23.1945 8.12232 23.5375 8.61293 23.7634 9.15313C24.0297 9.78707 24.1835 10.4575 24.2188 11.1378C24.2188 12.0441 24.2672 12.2887 24.2672 14.5C24.2672 16.7113 24.2188 16.9922 24.2188 17.8622Z" fill="#59575C"/>
</g>
<defs>
<clipPath id="clip0_10_111">
<rect width="31" height="29" fill="white"/>
</clipPath>
</defs>
</svg>
