<svg width="31" height="29" viewBox="0 0 31 29" fill="none" xmlns="http://www.w3.org/2000/svg">
<g clip-path="url(#clip0_10_120)">
<path d="M24.2189 3.0813H6.78145C4.85535 3.0813 3.29395 4.54197 3.29395 6.3438V22.6563C3.29395 24.4581 4.85535 25.9188 6.78145 25.9188H24.2189C26.145 25.9188 27.7064 24.4581 27.7064 22.6563V6.3438C27.7064 4.54197 26.145 3.0813 24.2189 3.0813Z" fill="white"/>
<path d="M25.1875 1.8125H5.8125C4.78479 1.8125 3.79916 2.19442 3.07246 2.87424C2.34576 3.55406 1.9375 4.47609 1.9375 5.4375V23.5625C1.9375 24.5239 2.34576 25.4459 3.07246 26.1258C3.79916 26.8056 4.78479 27.1875 5.8125 27.1875H25.1875C26.2152 27.1875 27.2008 26.8056 27.9275 26.1258C28.6542 25.4459 29.0625 24.5239 29.0625 23.5625V5.4375C29.0625 4.47609 28.6542 3.55406 27.9275 2.87424C27.2008 2.19442 26.2152 1.8125 25.1875 1.8125ZM9.98781 23.4356H5.95781V11.3281H9.98781V23.4356ZM7.97281 9.66969C7.51105 9.66969 7.05967 9.54159 6.67573 9.30161C6.29179 9.06162 5.99255 8.72051 5.81584 8.32143C5.63914 7.92234 5.5929 7.4832 5.68299 7.05954C5.77307 6.63587 5.99543 6.24671 6.32194 5.94126C6.64845 5.63581 7.06445 5.4278 7.51734 5.34353C7.97022 5.25926 8.43965 5.30251 8.86626 5.46781C9.29287 5.63312 9.6575 5.91306 9.91403 6.27222C10.1706 6.63139 10.3075 7.05366 10.3075 7.48563C10.3088 7.77278 10.2493 8.05732 10.1324 8.32285C10.0155 8.58837 9.8436 8.82962 9.62654 9.03266C9.40949 9.23571 9.15161 9.39654 8.86777 9.50588C8.58394 9.61521 8.27977 9.67089 7.97281 9.66969ZM25.0519 23.4356H21.0316V17.545C21.0316 16.1403 21.0316 14.3369 18.9391 14.3369C16.8466 14.3369 16.5269 15.8684 16.5269 17.4453V23.4356H12.5066V11.3281H16.3816V12.9775H16.4688C16.8555 12.3609 17.4139 11.854 18.0844 11.5109C18.7549 11.1678 19.5123 11.0012 20.2759 11.0291C24.3447 11.0291 25.1197 13.5303 25.1197 16.7928L25.0519 23.4356Z" fill="#59575C"/>
</g>
<defs>
<clipPath id="clip0_10_120">
<rect width="31" height="29" fill="white"/>
</clipPath>
</defs>
</svg>
