<?xml version="1.0" standalone="no"?>
<!DOCTYPE svg PUBLIC "-//W3C//DTD SVG 20010904//EN"
 "http://www.w3.org/TR/2001/REC-SVG-20010904/DTD/svg10.dtd">
<svg version="1.0" xmlns="http://www.w3.org/2000/svg"
 width="120.000000pt" height="120.000000pt" viewBox="0 0 120.000000 120.000000"
 preserveAspectRatio="xMidYMid meet">
<metadata>
Created by potrace 1.16, written by Peter Selinger 2001-2019
</metadata>
<g transform="translate(0.000000,120.000000) scale(0.093750,-0.093750)"
fill="#000000" stroke="none">
<path d="M573 1171 c-211 -54 -274 -323 -110 -467 52 -46 102 -64 177 -64 75
0 125 18 177 64 180 158 84 452 -153 471 -33 2 -73 0 -91 -4z"/>
<path d="M520 579 c-72 -14 -185 -75 -240 -130 -72 -72 -112 -156 -118 -248
-4 -64 -2 -76 13 -88 27 -19 903 -19 929 0 16 11 18 25 14 83 -12 224 -228
397 -487 393 -36 -1 -86 -5 -111 -10z"/>
</g>
</svg>
