<svg width="31" height="29" viewBox="0 0 31 29" fill="none" xmlns="http://www.w3.org/2000/svg">
<g clip-path="url(#clip0_10_127)">
<path d="M6.78145 3.0813H24.2189C26.1564 3.0813 27.7064 4.5313 27.7064 6.3438V22.6563C27.7064 24.4688 26.1564 25.9188 24.2189 25.9188H6.78145C4.84395 25.9188 3.29395 24.4688 3.29395 22.6563V6.3438C3.29395 4.5313 4.84395 3.0813 6.78145 3.0813Z" fill="white"/>
<path d="M25.1875 1.8125H5.8125C3.68125 1.8125 1.9375 3.44375 1.9375 5.4375V23.5625C1.9375 25.5562 3.68125 27.1875 5.8125 27.1875H25.1875C27.3188 27.1875 29.0625 25.5562 29.0625 23.5625V5.4375C29.0625 3.44375 27.3188 1.8125 25.1875 1.8125Z" fill="#59575C"/>
<path d="M16.8562 13.4126L22.2812 7.52197H21.0219L16.275 12.6876L12.5938 7.52197H8.23438L13.95 15.2251L8.23438 21.3876H9.49375L14.4344 15.9501L18.4062 21.3876H22.7656L16.8562 13.4126ZM15.1125 15.3157L14.5312 14.5907L9.97813 8.42822H11.9156L15.5969 13.4126L16.1781 14.1376L21.0219 20.572H19.0844L15.1125 15.3157Z" fill="white"/>
</g>
<defs>
<clipPath id="clip0_10_127">
<rect width="31" height="29" fill="white"/>
</clipPath>
</defs>
</svg>
