<svg width="31" height="29" viewBox="0 0 31 29" fill="none" xmlns="http://www.w3.org/2000/svg">
<g clip-path="url(#clip0_10_103)">
<path d="M24.2189 3.0813H6.78145C4.85535 3.0813 3.29395 4.54197 3.29395 6.3438V22.6563C3.29395 24.4581 4.85535 25.9188 6.78145 25.9188H24.2189C26.145 25.9188 27.7064 24.4581 27.7064 22.6563V6.3438C27.7064 4.54197 26.145 3.0813 24.2189 3.0813Z" fill="white"/>
<path d="M25.1875 1.8125H5.8125C4.78479 1.8125 3.79916 2.19442 3.07246 2.87424C2.34576 3.55406 1.9375 4.47609 1.9375 5.4375V23.5625C1.9375 24.5239 2.34576 25.4459 3.07246 26.1258C3.79916 26.8056 4.78479 27.1875 5.8125 27.1875H25.1875C26.2152 27.1875 27.2008 26.8056 27.9275 26.1258C28.6542 25.4459 29.0625 24.5239 29.0625 23.5625V5.4375C29.0625 4.47609 28.6542 3.55406 27.9275 2.87424C27.2008 2.19442 26.2152 1.8125 25.1875 1.8125ZM24.4319 18.7231C24.3276 19.0952 24.1206 19.4351 23.8315 19.7087C23.5424 19.9823 23.1815 20.18 22.785 20.2819C20.3677 20.5506 17.9342 20.6717 15.5 20.6444C13.0658 20.6717 10.6323 20.5506 8.215 20.2819C7.81847 20.18 7.45757 19.9823 7.1685 19.7087C6.87944 19.4351 6.67239 19.0952 6.56813 18.7231C6.30083 17.3295 6.17112 15.9158 6.18062 14.5C6.17112 13.0842 6.30083 11.6705 6.56813 10.2769C6.67239 9.90477 6.87944 9.56485 7.1685 9.29126C7.45757 9.01766 7.81847 8.82 8.215 8.71812C10.6323 8.44935 13.0658 8.32826 15.5 8.35563C17.9342 8.32826 20.3677 8.44935 22.785 8.71812C23.1815 8.82 23.5424 9.01766 23.8315 9.29126C24.1206 9.56485 24.3276 9.90477 24.4319 10.2769C24.6992 11.6705 24.8289 13.0842 24.8194 14.5C24.8289 15.9158 24.6992 17.3295 24.4319 18.7231Z" fill="#59575C"/>
<path d="M13.5918 17.092L18.4646 14.5001L13.5918 11.9082V17.092Z" fill="#59575C"/>
</g>
<defs>
<clipPath id="clip0_10_103">
<rect width="31" height="29" fill="white"/>
</clipPath>
</defs>
</svg>
